<mxfile host="app.diagrams.net" agent="Mozilla/5.0 (Windows NT 10.0; Win64; x64) AppleWebKit/537.36 (KHTML, like Gecko) Chrome/132.0.0.0 YaBrowser/25.2.0.0 Safari/537.36" version="27.1.1">
  <diagram name="Страница — 1" id="JdAsOSJgoWyrDVArH0wG">
    <mxGraphModel dx="1104" dy="644" grid="1" gridSize="10" guides="1" tooltips="1" connect="1" arrows="1" fold="1" page="1" pageScale="1" pageWidth="1169" pageHeight="827" math="0" shadow="0">
      <root>
        <mxCell id="0" />
        <mxCell id="1" parent="0" />
        <mxCell id="9TCDGHJHm5LRPzFvZ1fp-3" value="Офис-менеджер" style="swimlane;html=1;startSize=20;fontStyle=0;collapsible=0;horizontal=0;swimlaneLine=1;swimlaneFillColor=#ffffff;strokeWidth=2;whiteSpace=wrap;" vertex="1" parent="1">
          <mxGeometry x="80" y="100" width="1060" height="190" as="geometry" />
        </mxCell>
        <mxCell id="9TCDGHJHm5LRPzFvZ1fp-6" value="&lt;font style=&quot;font-size: 9px;&quot;&gt;Зарегистрировать заявку&lt;/font&gt;" style="points=[[0.25,0,0],[0.5,0,0],[0.75,0,0],[1,0.25,0],[1,0.5,0],[1,0.75,0],[0.75,1,0],[0.5,1,0],[0.25,1,0],[0,0.75,0],[0,0.5,0],[0,0.25,0]];shape=mxgraph.bpmn.task2;whiteSpace=wrap;rectStyle=rounded;size=10;html=1;container=1;expand=0;collapsible=0;taskMarker=abstract;" vertex="1" parent="9TCDGHJHm5LRPzFvZ1fp-3">
          <mxGeometry x="100" y="60" width="80" height="50" as="geometry" />
        </mxCell>
        <mxCell id="9TCDGHJHm5LRPzFvZ1fp-7" value="&lt;font style=&quot;font-size: 6px;&quot;&gt;Получить&lt;/font&gt;&lt;div&gt;&lt;font style=&quot;font-size: 6px;&quot;&gt;заявку&lt;/font&gt;&lt;/div&gt;" style="points=[[0.145,0.145,0],[0.5,0,0],[0.855,0.145,0],[1,0.5,0],[0.855,0.855,0],[0.5,1,0],[0.145,0.855,0],[0,0.5,0]];shape=mxgraph.bpmn.event;html=1;verticalLabelPosition=bottom;labelBackgroundColor=#ffffff;verticalAlign=top;align=center;perimeter=ellipsePerimeter;outlineConnect=0;aspect=fixed;outline=standard;symbol=message;opacity=90;" vertex="1" parent="9TCDGHJHm5LRPzFvZ1fp-3">
          <mxGeometry x="40" y="70" width="30" height="30" as="geometry" />
        </mxCell>
        <mxCell id="9TCDGHJHm5LRPzFvZ1fp-8" value="" style="endArrow=classic;html=1;rounded=0;exitX=1;exitY=0.5;exitDx=0;exitDy=0;exitPerimeter=0;entryX=0;entryY=0.5;entryDx=0;entryDy=0;entryPerimeter=0;" edge="1" parent="9TCDGHJHm5LRPzFvZ1fp-3" source="9TCDGHJHm5LRPzFvZ1fp-7" target="9TCDGHJHm5LRPzFvZ1fp-6">
          <mxGeometry width="50" height="50" relative="1" as="geometry">
            <mxPoint x="90" y="100" as="sourcePoint" />
            <mxPoint x="140" y="50" as="targetPoint" />
          </mxGeometry>
        </mxCell>
        <mxCell id="9TCDGHJHm5LRPzFvZ1fp-21" value="" style="edgeStyle=orthogonalEdgeStyle;rounded=0;orthogonalLoop=1;jettySize=auto;html=1;" edge="1" parent="9TCDGHJHm5LRPzFvZ1fp-3" source="9TCDGHJHm5LRPzFvZ1fp-6" target="9TCDGHJHm5LRPzFvZ1fp-9">
          <mxGeometry relative="1" as="geometry">
            <mxPoint x="260" y="205" as="sourcePoint" />
            <mxPoint x="320" y="205" as="targetPoint" />
          </mxGeometry>
        </mxCell>
        <mxCell id="9TCDGHJHm5LRPzFvZ1fp-9" value="&lt;font style=&quot;font-size: 9px;&quot;&gt;Передать инженеру- испытателю&lt;/font&gt;" style="points=[[0.25,0,0],[0.5,0,0],[0.75,0,0],[1,0.25,0],[1,0.5,0],[1,0.75,0],[0.75,1,0],[0.5,1,0],[0.25,1,0],[0,0.75,0],[0,0.5,0],[0,0.25,0]];shape=mxgraph.bpmn.task2;whiteSpace=wrap;rectStyle=rounded;size=10;html=1;container=1;expand=0;collapsible=0;taskMarker=abstract;" vertex="1" parent="9TCDGHJHm5LRPzFvZ1fp-3">
          <mxGeometry x="200" y="60" width="90" height="50" as="geometry" />
        </mxCell>
        <mxCell id="9TCDGHJHm5LRPzFvZ1fp-24" value="&lt;font style=&quot;font-size: 9px;&quot;&gt;Отправить уведомление&lt;/font&gt;" style="points=[[0.145,0.145,0],[0.5,0,0],[0.855,0.145,0],[1,0.5,0],[0.855,0.855,0],[0.5,1,0],[0.145,0.855,0],[0,0.5,0]];shape=mxgraph.bpmn.event;html=1;verticalLabelPosition=bottom;labelBackgroundColor=#ffffff;verticalAlign=top;align=center;perimeter=ellipsePerimeter;outlineConnect=0;aspect=fixed;outline=throwing;symbol=message;" vertex="1" parent="9TCDGHJHm5LRPzFvZ1fp-3">
          <mxGeometry x="540" y="68.75" width="32.5" height="32.5" as="geometry" />
        </mxCell>
        <mxCell id="9TCDGHJHm5LRPzFvZ1fp-35" value="" style="edgeStyle=orthogonalEdgeStyle;rounded=0;orthogonalLoop=1;jettySize=auto;html=1;" edge="1" parent="9TCDGHJHm5LRPzFvZ1fp-3" source="9TCDGHJHm5LRPzFvZ1fp-33" target="9TCDGHJHm5LRPzFvZ1fp-24">
          <mxGeometry relative="1" as="geometry" />
        </mxCell>
        <mxCell id="9TCDGHJHm5LRPzFvZ1fp-33" value="&lt;font style=&quot;font-size: 9px;&quot;&gt;Сформировать уведомление&lt;/font&gt;" style="points=[[0.25,0,0],[0.5,0,0],[0.75,0,0],[1,0.25,0],[1,0.5,0],[1,0.75,0],[0.75,1,0],[0.5,1,0],[0.25,1,0],[0,0.75,0],[0,0.5,0],[0,0.25,0]];shape=mxgraph.bpmn.task2;whiteSpace=wrap;rectStyle=rounded;size=10;html=1;container=1;expand=0;collapsible=0;taskMarker=abstract;" vertex="1" parent="9TCDGHJHm5LRPzFvZ1fp-3">
          <mxGeometry x="417.5" y="60" width="80" height="50" as="geometry" />
        </mxCell>
        <mxCell id="9TCDGHJHm5LRPzFvZ1fp-44" value="&lt;span style=&quot;background-color: rgb(255, 255, 255);&quot;&gt;&lt;font style=&quot;font-size: 9px;&quot;&gt;Подготовить документ к отправке&lt;/font&gt;&lt;/span&gt;" style="points=[[0.25,0,0],[0.5,0,0],[0.75,0,0],[1,0.25,0],[1,0.5,0],[1,0.75,0],[0.75,1,0],[0.5,1,0],[0.25,1,0],[0,0.75,0],[0,0.5,0],[0,0.25,0]];shape=mxgraph.bpmn.task2;whiteSpace=wrap;rectStyle=rounded;size=10;html=1;container=1;expand=0;collapsible=0;taskMarker=abstract;isLoopSub=1;fillColor=#f5f5f5;strokeColor=#666666;fontColor=#333333;align=center;" vertex="1" parent="9TCDGHJHm5LRPzFvZ1fp-3">
          <mxGeometry x="766.25" y="65" width="100" height="60" as="geometry" />
        </mxCell>
        <mxCell id="9TCDGHJHm5LRPzFvZ1fp-45" value="&lt;font style=&quot;font-size: 9px;&quot;&gt;Отправить&amp;nbsp;&lt;/font&gt;&lt;span style=&quot;font-size: 9px; background-color: light-dark(rgb(255, 255, 255), rgb(18, 18, 18)); color: light-dark(rgb(0, 0, 0), rgb(255, 255, 255));&quot;&gt;готовый&lt;/span&gt;&lt;div&gt;&lt;font style=&quot;font-size: 9px;&quot;&gt;документ&lt;/font&gt;&lt;/div&gt;" style="points=[[0.145,0.145,0],[0.5,0,0],[0.855,0.145,0],[1,0.5,0],[0.855,0.855,0],[0.5,1,0],[0.145,0.855,0],[0,0.5,0]];shape=mxgraph.bpmn.event;html=1;verticalLabelPosition=bottom;labelBackgroundColor=#ffffff;verticalAlign=top;align=center;perimeter=ellipsePerimeter;outlineConnect=0;aspect=fixed;outline=end;symbol=message;" vertex="1" parent="9TCDGHJHm5LRPzFvZ1fp-3">
          <mxGeometry x="940" y="80" width="30" height="30" as="geometry" />
        </mxCell>
        <mxCell id="9TCDGHJHm5LRPzFvZ1fp-46" value="" style="endArrow=classic;html=1;rounded=0;exitX=1;exitY=0.5;exitDx=0;exitDy=0;exitPerimeter=0;entryX=0;entryY=0.5;entryDx=0;entryDy=0;entryPerimeter=0;" edge="1" parent="9TCDGHJHm5LRPzFvZ1fp-3" source="9TCDGHJHm5LRPzFvZ1fp-44" target="9TCDGHJHm5LRPzFvZ1fp-45">
          <mxGeometry width="50" height="50" relative="1" as="geometry">
            <mxPoint x="830" y="180" as="sourcePoint" />
            <mxPoint x="830" y="240" as="targetPoint" />
          </mxGeometry>
        </mxCell>
        <mxCell id="9TCDGHJHm5LRPzFvZ1fp-4" value="Инженер-испытатель" style="swimlane;html=1;startSize=20;fontStyle=0;collapsible=0;horizontal=0;swimlaneLine=1;swimlaneFillColor=#ffffff;strokeWidth=2;whiteSpace=wrap;" vertex="1" parent="1">
          <mxGeometry x="80" y="290" width="1060" height="270" as="geometry" />
        </mxCell>
        <mxCell id="9TCDGHJHm5LRPzFvZ1fp-17" value="" style="edgeStyle=orthogonalEdgeStyle;rounded=0;orthogonalLoop=1;jettySize=auto;html=1;" edge="1" parent="9TCDGHJHm5LRPzFvZ1fp-4" source="9TCDGHJHm5LRPzFvZ1fp-14" target="9TCDGHJHm5LRPzFvZ1fp-16">
          <mxGeometry relative="1" as="geometry" />
        </mxCell>
        <mxCell id="9TCDGHJHm5LRPzFvZ1fp-14" value="&lt;font style=&quot;font-size: 9px;&quot;&gt;Получить пакет документов&lt;/font&gt;" style="points=[[0.25,0,0],[0.5,0,0],[0.75,0,0],[1,0.25,0],[1,0.5,0],[1,0.75,0],[0.75,1,0],[0.5,1,0],[0.25,1,0],[0,0.75,0],[0,0.5,0],[0,0.25,0]];shape=mxgraph.bpmn.task2;whiteSpace=wrap;rectStyle=rounded;size=10;html=1;container=1;expand=0;collapsible=0;taskMarker=abstract;" vertex="1" parent="9TCDGHJHm5LRPzFvZ1fp-4">
          <mxGeometry x="200" y="124" width="90" height="50" as="geometry" />
        </mxCell>
        <mxCell id="9TCDGHJHm5LRPzFvZ1fp-19" value="" style="edgeStyle=orthogonalEdgeStyle;rounded=0;orthogonalLoop=1;jettySize=auto;html=1;entryX=0;entryY=0.5;entryDx=0;entryDy=0;entryPerimeter=0;" edge="1" parent="9TCDGHJHm5LRPzFvZ1fp-4" source="9TCDGHJHm5LRPzFvZ1fp-16" target="9TCDGHJHm5LRPzFvZ1fp-20">
          <mxGeometry relative="1" as="geometry">
            <mxPoint x="480" y="80" as="targetPoint" />
            <Array as="points" />
          </mxGeometry>
        </mxCell>
        <mxCell id="9TCDGHJHm5LRPzFvZ1fp-16" value="&lt;font style=&quot;font-size: 9px;&quot;&gt;Проверить комплектность&amp;nbsp;&lt;/font&gt;" style="points=[[0.25,0,0],[0.5,0,0],[0.75,0,0],[1,0.25,0],[1,0.5,0],[1,0.75,0],[0.75,1,0],[0.5,1,0],[0.25,1,0],[0,0.75,0],[0,0.5,0],[0,0.25,0]];shape=mxgraph.bpmn.task2;whiteSpace=wrap;rectStyle=rounded;size=10;html=1;container=1;expand=0;collapsible=0;taskMarker=abstract;" vertex="1" parent="9TCDGHJHm5LRPzFvZ1fp-4">
          <mxGeometry x="320" y="124" width="90" height="50" as="geometry" />
        </mxCell>
        <mxCell id="9TCDGHJHm5LRPzFvZ1fp-26" value="" style="edgeStyle=orthogonalEdgeStyle;rounded=0;orthogonalLoop=1;jettySize=auto;html=1;" edge="1" parent="9TCDGHJHm5LRPzFvZ1fp-4" source="9TCDGHJHm5LRPzFvZ1fp-20" target="9TCDGHJHm5LRPzFvZ1fp-25">
          <mxGeometry relative="1" as="geometry" />
        </mxCell>
        <mxCell id="9TCDGHJHm5LRPzFvZ1fp-27" value="Да" style="edgeLabel;html=1;align=center;verticalAlign=middle;resizable=0;points=[];" vertex="1" connectable="0" parent="9TCDGHJHm5LRPzFvZ1fp-26">
          <mxGeometry x="0.2267" relative="1" as="geometry">
            <mxPoint x="-13" as="offset" />
          </mxGeometry>
        </mxCell>
        <mxCell id="9TCDGHJHm5LRPzFvZ1fp-20" value="&lt;font style=&quot;font-size: 9px;&quot;&gt;Комплект&lt;/font&gt;&lt;div&gt;&lt;span style=&quot;background-color: light-dark(rgb(255, 255, 255), rgb(18, 18, 18)); color: light-dark(rgb(0, 0, 0), rgb(255, 255, 255));&quot;&gt;&lt;font style=&quot;font-size: 9px;&quot;&gt;полный?&lt;/font&gt;&lt;/span&gt;&lt;/div&gt;" style="points=[[0.25,0.25,0],[0.5,0,0],[0.75,0.25,0],[1,0.5,0],[0.75,0.75,0],[0.5,1,0],[0.25,0.75,0],[0,0.5,0]];shape=mxgraph.bpmn.gateway2;html=1;verticalLabelPosition=bottom;labelBackgroundColor=#ffffff;verticalAlign=top;align=center;perimeter=rhombusPerimeter;outlineConnect=0;outline=none;symbol=none;gwType=exclusive;" vertex="1" parent="9TCDGHJHm5LRPzFvZ1fp-4">
          <mxGeometry x="440" y="131.5" width="35" height="35" as="geometry" />
        </mxCell>
        <mxCell id="9TCDGHJHm5LRPzFvZ1fp-39" value="" style="edgeStyle=orthogonalEdgeStyle;rounded=0;orthogonalLoop=1;jettySize=auto;html=1;" edge="1" parent="9TCDGHJHm5LRPzFvZ1fp-4" source="9TCDGHJHm5LRPzFvZ1fp-25" target="9TCDGHJHm5LRPzFvZ1fp-38">
          <mxGeometry relative="1" as="geometry" />
        </mxCell>
        <mxCell id="9TCDGHJHm5LRPzFvZ1fp-25" value="&lt;font style=&quot;font-size: 9px;&quot;&gt;Оценить информацию&lt;/font&gt;" style="rounded=1;whiteSpace=wrap;html=1;verticalAlign=top;labelBackgroundColor=#ffffff;" vertex="1" parent="9TCDGHJHm5LRPzFvZ1fp-4">
          <mxGeometry x="520" y="124" width="92.5" height="50" as="geometry" />
        </mxCell>
        <mxCell id="9TCDGHJHm5LRPzFvZ1fp-31" value="&lt;font style=&quot;font-size: 9px;&quot;&gt;Уведомить об отсутствии документов&lt;/font&gt;" style="points=[[0.25,0,0],[0.5,0,0],[0.75,0,0],[1,0.25,0],[1,0.5,0],[1,0.75,0],[0.75,1,0],[0.5,1,0],[0.25,1,0],[0,0.75,0],[0,0.5,0],[0,0.25,0]];shape=mxgraph.bpmn.task2;whiteSpace=wrap;rectStyle=rounded;size=10;html=1;container=1;expand=0;collapsible=0;taskMarker=abstract;" vertex="1" parent="9TCDGHJHm5LRPzFvZ1fp-4">
          <mxGeometry x="417.5" y="40" width="80" height="50" as="geometry" />
        </mxCell>
        <mxCell id="9TCDGHJHm5LRPzFvZ1fp-32" value="" style="endArrow=classic;html=1;rounded=0;exitX=0.5;exitY=0;exitDx=0;exitDy=0;exitPerimeter=0;entryX=0.5;entryY=1;entryDx=0;entryDy=0;entryPerimeter=0;" edge="1" parent="9TCDGHJHm5LRPzFvZ1fp-4" source="9TCDGHJHm5LRPzFvZ1fp-20" target="9TCDGHJHm5LRPzFvZ1fp-31">
          <mxGeometry width="50" height="50" relative="1" as="geometry">
            <mxPoint x="340" y="120" as="sourcePoint" />
            <mxPoint x="390" y="70" as="targetPoint" />
          </mxGeometry>
        </mxCell>
        <mxCell id="9TCDGHJHm5LRPzFvZ1fp-41" value="" style="edgeStyle=orthogonalEdgeStyle;rounded=0;orthogonalLoop=1;jettySize=auto;html=1;" edge="1" parent="9TCDGHJHm5LRPzFvZ1fp-4" source="9TCDGHJHm5LRPzFvZ1fp-38" target="9TCDGHJHm5LRPzFvZ1fp-40">
          <mxGeometry relative="1" as="geometry" />
        </mxCell>
        <mxCell id="9TCDGHJHm5LRPzFvZ1fp-38" value="&lt;font style=&quot;font-size: 9px;&quot;&gt;Проанализировать информацию&lt;/font&gt;" style="rounded=1;whiteSpace=wrap;html=1;verticalAlign=top;labelBackgroundColor=#ffffff;" vertex="1" parent="9TCDGHJHm5LRPzFvZ1fp-4">
          <mxGeometry x="650" y="124" width="92.5" height="50" as="geometry" />
        </mxCell>
        <mxCell id="9TCDGHJHm5LRPzFvZ1fp-40" value="&lt;font style=&quot;font-size: 9px;&quot;&gt;Оформить заключение&lt;/font&gt;" style="rounded=1;whiteSpace=wrap;html=1;verticalAlign=top;labelBackgroundColor=#ffffff;" vertex="1" parent="9TCDGHJHm5LRPzFvZ1fp-4">
          <mxGeometry x="770" y="124" width="92.5" height="50" as="geometry" />
        </mxCell>
        <mxCell id="9TCDGHJHm5LRPzFvZ1fp-15" value="" style="edgeStyle=orthogonalEdgeStyle;rounded=0;orthogonalLoop=1;jettySize=auto;html=1;" edge="1" parent="1" source="9TCDGHJHm5LRPzFvZ1fp-9" target="9TCDGHJHm5LRPzFvZ1fp-14">
          <mxGeometry relative="1" as="geometry" />
        </mxCell>
        <mxCell id="9TCDGHJHm5LRPzFvZ1fp-34" value="" style="edgeStyle=orthogonalEdgeStyle;rounded=0;orthogonalLoop=1;jettySize=auto;html=1;" edge="1" parent="1" source="9TCDGHJHm5LRPzFvZ1fp-31" target="9TCDGHJHm5LRPzFvZ1fp-33">
          <mxGeometry relative="1" as="geometry" />
        </mxCell>
        <mxCell id="9TCDGHJHm5LRPzFvZ1fp-43" value="" style="edgeStyle=orthogonalEdgeStyle;rounded=0;orthogonalLoop=1;jettySize=auto;html=1;entryX=0.5;entryY=1;entryDx=0;entryDy=0;entryPerimeter=0;" edge="1" parent="1" source="9TCDGHJHm5LRPzFvZ1fp-40" target="9TCDGHJHm5LRPzFvZ1fp-44">
          <mxGeometry relative="1" as="geometry">
            <mxPoint x="896.25" y="230" as="targetPoint" />
          </mxGeometry>
        </mxCell>
      </root>
    </mxGraphModel>
  </diagram>
</mxfile>
